<svg version="1.1" id="Layer_1" xmlns="http://www.w3.org/2000/svg" xmlns:xlink="http://www.w3.org/1999/xlink" x="0px" y="0px"
	 width="100%" viewBox="0 0 512 512" enable-background="new 0 0 512 512" xml:space="preserve">
<path fill="#01B690" opacity="1.000000" stroke="none" 
	d="
M448.000000,1.000000 
	C469.651886,1.000000 491.303802,1.000000 512.951294,1.000003 
	C512.946838,171.666672 512.946838,342.333344 512.946838,513.000000 
	C491.574890,513.000000 470.256104,513.000000 448.468658,512.531372 
	C448.000000,341.708466 448.000000,171.354233 448.000000,1.000000 
z"/>
<path fill="#017DA5" opacity="1.000000" stroke="none" 
	d="
M52.000000,513.000000 
	C35.012119,513.000000 18.024240,513.000000 1.042746,513.000000 
	C1.049132,342.333313 1.049132,171.666656 1.049132,1.000000 
	C17.753071,1.000000 34.407875,1.000000 51.531342,1.468657 
	C52.000000,172.291550 52.000000,342.645782 52.000000,513.000000 
z"/>
<path fill="#0183A3" opacity="1.000000" stroke="none" 
	d="
M52.468658,513.000000 
	C52.000000,342.645782 52.000000,172.291550 52.000000,1.468657 
	C66.687561,1.000000 81.375122,1.000000 96.531342,1.468657 
	C97.000038,65.027664 96.970154,128.118088 97.094185,191.208191 
	C97.099991,194.161957 98.478027,197.113037 99.232346,200.448959 
	C90.486885,226.438400 87.501801,252.742111 91.319199,279.497009 
	C93.067871,291.752899 96.818932,303.723083 99.447495,316.274536 
	C98.822128,319.662750 98.055733,322.598785 98.052490,325.535706 
	C97.983398,388.023743 98.000053,450.511871 98.000000,513.000000 
	C82.979103,513.000000 67.958214,513.000000 52.468658,513.000000 
z"/>
<path fill="#02AF93" opacity="1.000000" stroke="none" 
	d="
M447.531342,1.000000 
	C448.000000,171.354233 448.000000,341.708466 448.000000,512.531372 
	C435.312439,513.000000 422.624878,513.000000 409.468658,512.531372 
	C409.000000,458.175232 409.021240,404.287781 408.947845,350.400421 
	C408.943390,347.120819 408.188507,343.842224 407.817566,340.222443 
	C423.049408,312.083496 428.693665,282.750854 422.888458,251.298874 
	C419.940216,235.325607 413.708527,221.474915 400.444946,211.597748 
	C395.956024,208.254913 390.835327,205.760483 386.040222,202.466736 
	C386.384674,195.026749 386.692291,187.998337 387.332458,180.789673 
	C412.177246,174.055725 421.456604,148.435684 406.057800,129.770096 
	C401.086121,123.743721 394.415466,120.588753 386.999695,118.302719 
	C386.999603,78.899567 386.999817,39.949783 387.000000,1.000000 
	C407.020905,1.000000 427.041779,1.000000 447.531342,1.000000 
z"/>
<path fill="#029C9A" opacity="1.000000" stroke="none" 
	d="
M258.000000,1.000000 
	C269.354218,1.000000 280.708466,1.000000 292.531342,1.468657 
	C293.000000,73.731903 293.007996,145.526505 292.976807,217.321075 
	C292.975220,220.970566 292.426941,224.627014 292.550171,228.266113 
	C292.605499,229.900391 293.689941,231.499832 294.135254,233.421341 
	C283.265289,240.639053 272.567444,247.550537 261.099304,254.959641 
	C263.075012,255.969879 264.028412,256.457397 265.214600,257.134705 
	C266.634216,257.103516 267.821014,256.882538 269.443115,256.489990 
	C274.231720,256.162384 278.585052,256.006287 283.204498,256.063293 
	C284.982056,255.953659 286.493500,255.630981 288.391754,255.191452 
	C289.851593,255.112656 290.924622,255.150711 291.997742,255.645477 
	C292.055420,291.258087 292.112946,326.414032 291.916107,361.818848 
	C288.784515,362.738739 285.907288,363.409729 282.851440,363.934662 
	C282.114655,364.100494 281.556458,364.412384 280.607361,364.891479 
	C270.445068,365.465240 260.673706,365.871735 250.922089,365.792053 
	C250.960907,293.122772 250.979935,220.939667 251.347565,148.572647 
	C254.596268,147.292114 259.440674,149.814529 259.344788,143.378769 
	C259.089722,126.260635 259.312317,109.135704 259.160889,92.015106 
	C259.148224,90.582130 257.752563,89.161400 257.097900,87.345474 
	C257.464233,84.499054 257.959595,82.042625 257.964874,79.585152 
	C258.021271,53.390198 257.999969,27.195076 258.000000,1.000000 
z"/>
<path fill="#01A198" opacity="1.000000" stroke="none" 
	d="
M294.307373,233.115097 
	C293.689941,231.499832 292.605499,229.900391 292.550171,228.266113 
	C292.426941,224.627014 292.975220,220.970566 292.976807,217.321075 
	C293.007996,145.526505 293.000000,73.731903 293.000000,1.468657 
	C306.687561,1.000000 320.375122,1.000000 334.531342,1.468657 
	C335.000000,61.835609 335.031952,121.733948 334.964264,181.632156 
	C334.954529,190.262222 334.465363,198.891739 334.022766,207.793854 
	C320.667450,216.415817 307.487427,224.765457 294.307373,233.115097 
z"/>
<path fill="#02A796" opacity="1.000000" stroke="none" 
	d="
M334.198059,207.521515 
	C334.465363,198.891739 334.954529,190.262222 334.964264,181.632156 
	C335.031952,121.733948 335.000000,61.835609 335.000000,1.468657 
	C352.020905,1.000000 369.041779,1.000000 386.531342,1.000000 
	C386.999817,39.949783 386.999603,78.899567 386.543030,118.366913 
	C385.089172,118.883041 384.091675,118.880432 383.094208,118.880363 
	C367.979858,118.879387 355.479401,128.273148 352.151276,142.132767 
	C348.677582,156.598679 354.919586,171.068604 368.697723,177.463882 
	C374.163361,180.000809 380.862427,179.880463 386.999908,180.969940 
	C386.692291,187.998337 386.384674,195.026749 385.661560,202.492081 
	C376.902130,201.733368 368.405792,198.971649 360.255524,199.765030 
	C351.401917,200.626892 342.870148,204.795029 334.198059,207.521515 
z"/>
<path fill="#0288A1" opacity="1.000000" stroke="none" 
	d="
M98.468658,513.000000 
	C98.000053,450.511871 97.983398,388.023743 98.052490,325.535706 
	C98.055733,322.598785 98.822128,319.662750 99.716003,316.552795 
	C102.091881,320.785004 103.912048,325.223694 105.890854,329.590546 
	C113.197258,345.714203 123.628922,359.768738 134.976715,373.588806 
	C136.126160,374.919250 137.227539,375.902283 138.585327,376.959412 
	C139.267670,377.581055 139.693604,378.128632 140.166046,379.044617 
	C144.103149,384.300568 144.063950,390.020294 144.049576,395.888275 
	C143.953934,434.925323 144.000000,473.962708 144.000000,513.000000 
	C128.979111,513.000000 113.958214,513.000000 98.468658,513.000000 
z"/>
<path fill="#0288A2" opacity="1.000000" stroke="none" 
	d="
M99.216995,200.065369 
	C98.478027,197.113037 97.099991,194.161957 97.094185,191.208191 
	C96.970154,128.118088 97.000038,65.027664 97.000000,1.468657 
	C107.354225,1.000000 117.708458,1.000000 128.531342,1.468657 
	C129.000107,47.176582 128.956589,92.416016 129.120300,137.654694 
	C129.129135,140.091812 130.877411,142.522629 131.727432,145.275024 
	C124.534767,155.791611 116.953072,165.698074 110.489159,176.286865 
	C105.944145,183.732224 102.920166,192.106110 99.216995,200.065369 
z"/>
<path fill="#028E9F" opacity="1.000000" stroke="none" 
	d="
M144.468658,513.000000 
	C144.000000,473.962708 143.953934,434.925323 144.049576,395.888275 
	C144.063950,390.020294 144.103149,384.300568 140.496658,379.146393 
	C149.473251,385.821472 157.824677,393.258087 166.961639,399.554871 
	C174.858337,404.996887 183.647736,409.143524 192.033600,414.339966 
	C192.016464,447.544769 192.008224,480.272400 192.000000,513.000000 
	C176.312439,513.000000 160.624878,513.000000 144.468658,513.000000 
z"/>
<path fill="#01959C" opacity="1.000000" stroke="none" 
	d="
M192.468658,513.000000 
	C192.008224,480.272400 192.016464,447.544769 192.411774,414.329773 
	C207.968307,420.145020 223.772812,424.061890 240.099091,426.615051 
	C240.828140,426.811646 241.454147,426.798767 242.499741,426.708191 
	C244.612228,426.813019 246.305145,426.995605 247.997971,427.635651 
	C247.998581,456.395416 247.999283,484.697723 248.000000,513.000000 
	C229.645767,513.000000 211.291550,513.000000 192.468658,513.000000 
z"/>
<path fill="#01A995" opacity="1.000000" stroke="none" 
	d="
M386.000000,513.000000 
	C373.312439,513.000000 360.624878,513.000000 347.468658,512.531372 
	C346.999908,478.877899 347.048126,445.692932 346.907532,412.508759 
	C346.896362,409.875061 345.576904,407.246887 345.035522,404.331909 
	C357.568604,394.370239 369.931641,384.692810 382.665375,375.059998 
	C387.120575,376.117157 385.950043,379.490509 385.953857,382.085907 
	C386.018066,425.723877 385.999878,469.361938 386.000000,513.000000 
z"/>
<path fill="#02A398" opacity="1.000000" stroke="none" 
	d="
M344.865479,404.616150 
	C345.576904,407.246887 346.896362,409.875061 346.907532,412.508759 
	C347.048126,445.692932 346.999908,478.877899 347.000000,512.531372 
	C331.645782,513.000000 316.291534,513.000000 300.468628,512.531372 
	C299.666718,482.368347 299.333466,452.674011 299.275604,422.720337 
	C302.439178,421.698578 305.456512,421.249115 308.193298,420.119781 
	C320.460999,415.057648 332.648804,409.802002 344.865479,404.616150 
z"/>
<path fill="#029D9A" opacity="1.000000" stroke="none" 
	d="
M299.000244,422.979675 
	C299.333466,452.674011 299.666718,482.368347 300.000000,512.531372 
	C282.979095,513.000000 265.958221,513.000000 248.468658,513.000000 
	C247.999283,484.697723 247.998581,456.395416 248.460114,427.551208 
	C265.789307,427.832672 282.471863,426.364136 299.000244,422.979675 
z"/>
<path fill="#028CA0" opacity="1.000000" stroke="none" 
	d="
M131.815964,144.956390 
	C130.877411,142.522629 129.129135,140.091812 129.120300,137.654694 
	C128.956589,92.416016 129.000107,47.176582 129.000000,1.468657 
	C140.020889,1.000000 151.041794,1.000000 162.531342,1.468657 
	C162.669250,40.634396 162.338501,79.331474 161.838928,118.318924 
	C151.718719,127.391655 141.767349,136.174026 131.815964,144.956390 
z"/>
<path fill="#02AD94" opacity="1.000000" stroke="none" 
	d="
M386.468628,513.000000 
	C385.999878,469.361938 386.018066,425.723877 385.953857,382.085907 
	C385.950043,379.490509 387.120575,376.117157 382.744843,374.746216 
	C390.896667,363.112976 399.339722,351.838074 407.782776,340.563171 
	C408.188507,343.842224 408.943390,347.120819 408.947845,350.400421 
	C409.021240,404.287781 409.000000,458.175232 409.000000,512.531372 
	C401.645752,513.000000 394.291504,513.000000 386.468628,513.000000 
z"/>
<path fill="#02909F" opacity="1.000000" stroke="none" 
	d="
M162.007751,118.028549 
	C162.338501,79.331474 162.669250,40.634396 163.000000,1.468657 
	C172.687561,1.000000 182.375122,1.000000 192.531342,1.468657 
	C193.078537,34.829239 193.157059,67.721169 193.004272,100.849632 
	C182.517883,106.733627 172.262817,112.381088 162.007751,118.028549 
z"/>
<path fill="#01949D" opacity="1.000000" stroke="none" 
	d="
M193.235580,100.613091 
	C193.157059,67.721169 193.078537,34.829239 193.000000,1.468657 
	C204.020889,1.000000 215.041794,1.000000 226.531342,1.468657 
	C227.000000,21.231098 227.191193,40.527531 226.923523,59.817604 
	C226.778320,70.281883 228.906708,81.028435 223.676315,91.288437 
	C213.312698,94.541489 203.274139,97.577286 193.235580,100.613091 
z"/>
<path fill="#02989B" opacity="1.000000" stroke="none" 
	d="
M224.001373,91.071198 
	C228.906708,81.028435 226.778320,70.281883 226.923523,59.817604 
	C227.191193,40.527531 227.000000,21.231098 227.000000,1.468657 
	C237.020889,1.000000 247.041794,1.000000 257.531342,1.000000 
	C257.999969,27.195076 258.021271,53.390198 257.964874,79.585152 
	C257.959595,82.042625 257.464233,84.499054 256.637878,87.424309 
	C251.406860,87.982567 246.734329,88.072479 241.897293,88.004852 
	C241.153992,88.079742 240.575211,88.312180 239.583710,88.700897 
	C234.114456,89.595177 229.057922,90.333191 224.001373,91.071198 
z"/>
<path fill="#FDFEFE" opacity="1.000000" stroke="none" 
	d="
M242.061813,88.162384 
	C246.734329,88.072479 251.406860,87.982567 256.539398,87.813812 
	C257.752563,89.161400 259.148224,90.582130 259.160889,92.015106 
	C259.312317,109.135704 259.089722,126.260635 259.344788,143.378769 
	C259.440674,149.814529 254.596268,147.292114 250.913574,148.449112 
	C233.115051,149.669540 217.337631,154.630142 202.613159,163.940567 
	C186.351456,173.799072 173.491135,186.687729 164.416275,203.002228 
	C146.878845,234.530426 145.039154,267.318787 158.722717,300.569183 
	C167.641037,322.240356 182.475128,339.270874 202.921021,351.101501 
	C202.926544,351.065369 202.858490,351.091919 203.014465,351.366821 
	C204.113083,352.054108 205.055710,352.466461 206.245331,353.135498 
	C220.358444,360.917450 234.932373,366.003448 250.902313,366.278229 
	C260.673706,365.871735 270.445068,365.465240 280.889587,364.946381 
	C282.051788,364.582947 282.540924,364.331848 283.030060,364.080750 
	C285.907288,363.409729 288.784515,362.738739 292.314758,361.843140 
	C303.854889,358.147064 314.134918,353.488861 323.386688,346.154907 
	C324.432861,345.385406 325.169739,344.676971 326.168823,343.921753 
	C326.624207,343.593567 326.817444,343.312134 327.344177,342.959747 
	C334.459534,335.860626 341.926056,329.364960 347.888580,321.699463 
	C362.825806,302.496033 368.569336,281.088654 361.030731,257.091339 
	C359.687897,252.816696 357.494293,250.588898 352.807312,251.000931 
	C343.879883,251.785782 334.935791,252.380630 325.550354,252.990387 
	C314.067291,253.680542 303.032471,254.434662 291.997620,255.188782 
	C290.924622,255.150711 289.851593,255.112656 288.018158,255.144699 
	C285.817932,255.426605 284.378143,255.638428 282.938354,255.850235 
	C278.585052,256.006287 274.231720,256.162384 269.109009,256.390320 
	C267.220337,256.623077 266.101074,256.783997 264.981781,256.944885 
	C264.028412,256.457397 263.075012,255.969879 261.099304,254.959641 
	C272.567444,247.550537 283.265289,240.639053 294.135254,233.421341 
	C307.487427,224.765457 320.667450,216.415817 334.022766,207.793854 
	C342.870148,204.795029 351.401917,200.626892 360.255524,199.765030 
	C368.405792,198.971649 376.902130,201.733368 385.624664,202.903687 
	C390.835327,205.760483 395.956024,208.254913 400.444946,211.597748 
	C413.708527,221.474915 419.940216,235.325607 422.888458,251.298874 
	C428.693665,282.750854 423.049408,312.083496 407.817566,340.222443 
	C399.339722,351.838074 390.896667,363.112976 382.374115,374.701630 
	C369.931641,384.692810 357.568604,394.370239 345.035522,404.331909 
	C332.648804,409.802002 320.460999,415.057648 308.193298,420.119781 
	C305.456512,421.249115 302.439178,421.698578 299.275635,422.720337 
	C282.471863,426.364136 265.789307,427.832672 248.460205,427.093689 
	C246.305145,426.995605 244.612228,426.813019 242.290619,426.515259 
	C241.106659,426.401886 240.551361,426.403717 239.996078,426.405579 
	C223.772812,424.061890 207.968307,420.145020 192.420685,413.852570 
	C183.647736,409.143524 174.858337,404.996887 166.961639,399.554871 
	C157.824677,393.258087 149.473251,385.821472 140.450134,378.777954 
	C139.693604,378.128632 139.267670,377.581055 138.499832,376.645935 
	C137.081497,375.252686 136.005066,374.247009 134.928635,373.241333 
	C123.628922,359.768738 113.197258,345.714203 105.890854,329.590546 
	C103.912048,325.223694 102.091881,320.785004 99.930397,316.101044 
	C96.818932,303.723083 93.067871,291.752899 91.319199,279.497009 
	C87.501801,252.742111 90.486885,226.438400 99.232353,200.448959 
	C102.920166,192.106110 105.944145,183.732224 110.489159,176.286865 
	C116.953072,165.698074 124.534767,155.791611 131.727432,145.275024 
	C141.767349,136.174026 151.718719,127.391655 161.838928,118.318924 
	C172.262817,112.381088 182.517883,106.733627 193.004272,100.849632 
	C203.274139,97.577286 213.312698,94.541489 223.676315,91.288437 
	C229.057922,90.333191 234.114456,89.595177 239.851074,88.786148 
	C241.041367,88.530876 241.551590,88.346634 242.061813,88.162384 
z"/>
<path fill="#FAFDFD" opacity="1.000000" stroke="none" 
	d="
M387.332458,180.789673 
	C380.862427,179.880463 374.163361,180.000809 368.697723,177.463882 
	C354.919586,171.068604 348.677582,156.598679 352.151276,142.132767 
	C355.479401,128.273148 367.979858,118.879387 383.094208,118.880363 
	C384.091675,118.880432 385.089172,118.883041 386.543335,118.820282 
	C394.415466,120.588753 401.086121,123.743721 406.057800,129.770096 
	C421.456604,148.435684 412.177246,174.055725 387.332458,180.789673 
z"/>
<path fill="#02969C" opacity="1.000000" stroke="none" 
	d="
M250.922089,365.792053 
	C234.932373,366.003448 220.358444,360.917450 206.107788,352.840363 
	C204.768326,351.889648 203.813416,351.490784 202.858490,351.091919 
	C202.858490,351.091919 202.926544,351.065369 202.939667,350.623169 
	C202.954712,288.081238 202.956619,225.981491 202.958527,163.881760 
	C217.337631,154.630142 233.115051,149.669540 250.564972,148.633041 
	C250.979935,220.939667 250.960907,293.122772 250.922089,365.792053 
z"/>
<path fill="#03A199" opacity="1.000000" stroke="none" 
	d="
M291.997742,255.645477 
	C303.032471,254.434662 314.067291,253.680542 325.587158,253.406158 
	C326.381744,257.013885 326.951294,260.141113 326.960083,263.269928 
	C327.034760,289.856659 327.007416,316.443726 327.010681,343.030670 
	C326.817444,343.312134 326.624207,343.593567 325.836487,343.965332 
	C324.520477,344.775726 323.798920,345.495850 323.077393,346.215942 
	C314.134918,353.488861 303.854889,358.147064 292.569122,361.594238 
	C292.112946,326.414032 292.055420,291.258087 291.997742,255.645477 
z"/>
<path fill="#03A199" opacity="1.000000" stroke="none" 
	d="
M283.204498,256.063293 
	C284.378143,255.638428 285.817932,255.426605 287.631317,255.261551 
	C286.493500,255.630981 284.982056,255.953659 283.204498,256.063293 
z"/>
<path fill="#03A199" opacity="1.000000" stroke="none" 
	d="
M265.214600,257.134705 
	C266.101074,256.783997 267.220337,256.623077 268.673706,256.561890 
	C267.821014,256.882538 266.634216,257.103516 265.214600,257.134705 
z"/>
<path fill="#03A199" opacity="1.000000" stroke="none" 
	d="
M282.851440,363.934692 
	C282.540924,364.331848 282.051788,364.582947 281.280457,364.779175 
	C281.556458,364.412384 282.114655,364.100494 282.851440,363.934692 
z"/>
<path fill="#028E9F" opacity="1.000000" stroke="none" 
	d="
M134.976715,373.588806 
	C136.005066,374.247009 137.081497,375.252686 138.243423,376.571838 
	C137.227539,375.902283 136.126160,374.919250 134.976715,373.588806 
z"/>
<path fill="#029D9A" opacity="1.000000" stroke="none" 
	d="
M240.099091,426.615051 
	C240.551361,426.403717 241.106659,426.401886 241.871063,426.592987 
	C241.454147,426.798767 240.828140,426.811646 240.099091,426.615051 
z"/>
<path fill="#029C9A" opacity="1.000000" stroke="none" 
	d="
M241.897293,88.004852 
	C241.551590,88.346634 241.041367,88.530876 240.263794,88.629868 
	C240.575211,88.312180 241.153992,88.079742 241.897293,88.004852 
z"/>
<path fill="#03919F" opacity="1.000000" stroke="none" 
	d="
M202.613159,163.940567 
	C202.956619,225.981491 202.954712,288.081238 202.934143,350.659302 
	C182.475128,339.270874 167.641037,322.240356 158.722717,300.569183 
	C145.039154,267.318787 146.878845,234.530426 164.416275,203.002228 
	C173.491135,186.687729 186.351456,173.799072 202.613159,163.940567 
z"/>
<path fill="#05A698" opacity="1.000000" stroke="none" 
	d="
M327.344147,342.959747 
	C327.007416,316.443726 327.034760,289.856659 326.960083,263.269928 
	C326.951294,260.141113 326.381744,257.013885 326.035370,253.470154 
	C334.935791,252.380630 343.879883,251.785782 352.807312,251.000931 
	C357.494293,250.588898 359.687897,252.816696 361.030731,257.091339 
	C368.569336,281.088654 362.825806,302.496033 347.888580,321.699463 
	C341.926056,329.364960 334.459534,335.860626 327.344147,342.959747 
z"/>
<path fill="#05A698" opacity="1.000000" stroke="none" 
	d="
M323.386688,346.154907 
	C323.798920,345.495850 324.520477,344.775726 325.574341,344.012085 
	C325.169739,344.676971 324.432861,345.385406 323.386688,346.154907 
z"/>
<path fill="#03919F" opacity="1.000000" stroke="none" 
	d="
M203.014465,351.366821 
	C203.813416,351.490784 204.768326,351.889648 205.860809,352.583679 
	C205.055710,352.466461 204.113083,352.054108 203.014465,351.366821 
z"/>
</svg>